<svg data-v-423bf9ae="" xmlns="http://www.w3.org/2000/svg" viewBox="0 0 570 90" class="iconLeft"><!----><!----><!----><g data-v-423bf9ae="" id="0eedb57d-09fb-4777-af6e-1ed39b9af877" fill="white" transform="matrix(4.52488679972365,0,0,4.52488679972365,104.34388690265143,-2.6018095236245955)"><path d="M8.43 6.37L8.79 4.58L1.61 4.58L1.25 6.37L3.82 6.37L2.23 14.35L4.26 14.35L5.85 6.37ZM10.60 14.52C11.86 14.52 12.82 14.07 13.73 12.87L12.53 11.91C11.87 12.74 11.38 12.94 10.74 12.94C9.77 12.94 9.44 12.46 9.44 11.76C9.44 11.69 9.44 11.61 9.46 11.44C12.75 11.34 14.11 10.39 14.11 8.88C14.11 7.28 12.59 6.83 11.48 6.83C9.04 6.83 7.49 9.00 7.49 11.35C7.49 13.30 8.51 14.52 10.60 14.52ZM11.37 8.33C11.72 8.33 12.21 8.44 12.21 9.07C12.21 9.66 11.77 10.07 9.67 10.19L9.73 9.87C9.90 8.92 10.54 8.33 11.37 8.33ZM16.42 14.35L17.19 10.49C17.43 9.30 18.05 8.90 19.29 8.90L19.78 8.90L20.17 7.00L19.82 7.00C18.69 7.00 17.93 8.04 17.63 8.83L17.53 8.83L17.89 7.00L15.93 7.00L14.46 14.35ZM21.94 14.35L22.71 10.49C22.95 9.30 23.56 8.90 24.81 8.90L25.30 8.90L25.69 7.00L25.34 7.00C24.21 7.00 23.45 8.04 23.14 8.83L23.04 8.83L23.41 7.00L21.45 7.00L19.98 14.35ZM28.13 6.19C29.06 6.19 29.34 5.67 29.47 5.18C29.51 5.01 29.55 4.79 29.55 4.62C29.55 4.17 29.23 3.89 28.55 3.89C27.61 3.89 27.33 4.41 27.20 4.90C27.16 5.07 27.12 5.29 27.12 5.46C27.12 5.91 27.44 6.19 28.13 6.19ZM28.28 14.35L28.59 12.78L27.76 12.78L28.92 7.00L26.96 7.00L25.79 12.88C25.76 13.02 25.75 13.12 25.75 13.23C25.75 13.90 26.25 14.35 27.01 14.35ZM33.01 14.35L33.32 12.78L31.98 12.78L32.82 8.57L34.30 8.57L34.62 7.00L33.14 7.00L33.53 5.01L31.71 5.01L31.46 6.26C31.36 6.76 31.23 7.00 30.63 7.00L30.14 7.00L29.83 8.57L30.87 8.57L30.11 12.36C30.07 12.57 30.06 12.82 30.06 12.96C30.06 13.89 30.65 14.35 31.78 14.35ZM37.45 14.52C39.63 14.52 41.24 12.56 41.24 9.90C41.24 7.97 40.11 6.83 38.32 6.83C36.13 6.83 34.52 8.79 34.52 11.45C34.52 13.38 35.66 14.52 37.45 14.52ZM37.52 12.94C36.83 12.94 36.47 12.47 36.47 11.77C36.47 11.59 36.50 11.42 36.51 11.34L36.78 10.02C36.99 8.97 37.51 8.41 38.25 8.41C38.93 8.41 39.30 8.88 39.30 9.58C39.30 9.76 39.27 9.93 39.26 10.01L38.99 11.33C38.78 12.38 38.26 12.94 37.52 12.94ZM43.83 14.35L44.60 10.49C44.84 9.30 45.46 8.90 46.70 8.90L47.19 8.90L47.59 7.00L47.24 7.00C46.10 7.00 45.35 8.04 45.04 8.83L44.94 8.83L45.30 7.00L43.34 7.00L41.87 14.35ZM51.87 9.77L50.64 12.52L50.55 12.52L50.33 9.77L50.05 7.00L48.10 7.00L49.14 14.77L48.75 15.58L47.39 15.58L47.07 17.15L48.16 17.15C49.56 17.15 50.19 16.62 50.76 15.54L55.27 7.00L53.19 7.00ZM61.33 14.35L61.70 12.56L57.30 12.56L57.75 10.30L61.50 10.30L61.87 8.51L58.11 8.51L58.55 6.37L62.79 6.37L63.15 4.58L56.87 4.58L54.91 14.35ZM65.67 14.52C67.77 14.52 68.88 13.26 68.88 11.83C68.88 10.68 68.18 10.04 66.92 9.87L66.18 9.77C65.66 9.70 65.49 9.45 65.49 9.17C65.49 8.72 65.90 8.40 66.56 8.40C67.20 8.40 67.79 8.69 68.14 9.14L69.37 7.99C68.73 7.21 67.77 6.83 66.64 6.83C64.57 6.83 63.59 8.08 63.59 9.46C63.59 10.64 64.29 11.27 65.55 11.44L66.29 11.54C66.81 11.61 66.98 11.86 66.98 12.14C66.98 12.56 66.63 12.95 65.72 12.95C64.89 12.95 64.36 12.63 63.95 12.08L62.72 13.23C63.36 14.08 64.44 14.52 65.67 14.52ZM69.29 17.15L71.25 17.15L72.06 13.08L72.13 13.08C72.23 13.87 72.94 14.52 73.96 14.52C75.84 14.52 77.38 12.50 77.38 9.38C77.38 7.91 76.79 6.83 75.42 6.83C74.27 6.83 73.60 7.52 73.02 8.71L72.94 8.71L73.28 7.00L71.32 7.00ZM73.49 12.91C72.67 12.91 72.18 12.43 72.34 11.69L72.56 10.57C72.67 10.02 72.93 9.49 73.23 9.11C73.53 8.75 73.95 8.44 74.45 8.44C75.03 8.44 75.38 8.83 75.38 9.49C75.38 9.72 75.33 10.09 75.29 10.29L75.10 11.27C74.87 12.38 74.35 12.91 73.49 12.91ZM81.17 14.52C83.36 14.52 84.97 12.56 84.97 9.90C84.97 7.97 83.83 6.83 82.04 6.83C79.86 6.83 78.25 8.79 78.25 11.45C78.25 13.38 79.38 14.52 81.17 14.52ZM81.24 12.94C80.56 12.94 80.19 12.47 80.19 11.77C80.19 11.59 80.22 11.42 80.23 11.34L80.50 10.02C80.71 8.97 81.23 8.41 81.97 8.41C82.66 8.41 83.02 8.88 83.02 9.58C83.02 9.76 82.99 9.93 82.98 10.01L82.71 11.33C82.50 12.38 81.98 12.94 81.24 12.94ZM87.56 14.35L88.33 10.49C88.56 9.30 89.18 8.90 90.43 8.90L90.92 8.90L91.31 7.00L90.96 7.00C89.82 7.00 89.07 8.04 88.76 8.83L88.66 8.83L89.03 7.00L87.07 7.00L85.60 14.35ZM94.89 14.35L95.20 12.78L93.86 12.78L94.70 8.57L96.18 8.57L96.50 7.00L95.02 7.00L95.41 5.01L93.59 5.01L93.34 6.26C93.24 6.76 93.11 7.00 92.51 7.00L92.02 7.00L91.71 8.57L92.75 8.57L91.99 12.36C91.95 12.57 91.94 12.82 91.94 12.96C91.94 13.89 92.53 14.35 93.66 14.35ZM99.05 14.52C101.15 14.52 102.26 13.26 102.26 11.83C102.26 10.68 101.56 10.04 100.30 9.87L99.55 9.77C99.04 9.70 98.87 9.45 98.87 9.17C98.87 8.72 99.27 8.40 99.93 8.40C100.58 8.40 101.16 8.69 101.51 9.14L102.75 7.99C102.10 7.21 101.15 6.83 100.02 6.83C97.94 6.83 96.96 8.08 96.96 9.46C96.96 10.64 97.66 11.27 98.92 11.44L99.67 11.54C100.18 11.61 100.35 11.86 100.35 12.14C100.35 12.56 100.00 12.95 99.09 12.95C98.27 12.95 97.73 12.63 97.33 12.08L96.10 13.23C96.74 14.08 97.82 14.52 99.05 14.52Z"></path></g><!----><g data-v-423bf9ae="" id="d786150f-8bf9-4b5f-863d-540a51406581" transform="matrix(2.8125,0,0,2.8125,0,0)" stroke="none" fill="white"><path d="M4.029 14.362L14.362 4.028l.707.707L4.736 15.07zM17.135 27.47L27.47 17.135l.707.707-10.333 10.333zM4.029 17.841l.707-.707 10.333 10.334-.707.707zM17.135 4.735l.708-.707L28.176 14.36l-.707.707z"></path><g><path d="M16 1.414l1.683 1.683L16 4.779l-1.683-1.683L16 1.414M16 0l-3.097 3.097L16 6.194l3.097-3.097L16 0zM16 27.221l1.683 1.683L16 30.586l-1.683-1.683L16 27.221m0-1.415l-3.097 3.097L16 32l3.097-3.097L16 25.806zM3.097 14.317L4.779 16l-1.683 1.683L1.414 16l1.683-1.683m0-1.414L0 16l3.097 3.097L6.194 16l-3.097-3.097zM28.903 14.317L30.586 16l-1.683 1.683L27.221 16l1.682-1.683m0-1.414L25.806 16l3.097 3.097L32 16l-3.097-3.097z"></path></g></g><!----></svg>