<svg data-v-423bf9ae="" xmlns="http://www.w3.org/2000/svg" viewBox="0 0 536.7039734748536 60" class="font"><!----><defs data-v-423bf9ae=""><linearGradient data-v-423bf9ae="" gradientTransform="rotate(25)" id="45208375-48ae-4f9b-88b0-7e6c5b263d6c" x1="0%" y1="0%" x2="100%" y2="0%"><stop data-v-423bf9ae="" offset="0%" style="stop-color: rgb(229, 101, 0); stop-opacity: 1;"></stop><stop data-v-423bf9ae="" offset="100%" style="stop-color: rgb(235, 197, 29); stop-opacity: 1;"></stop></linearGradient></defs><!----><g data-v-423bf9ae="" id="e5665503-569c-4246-925e-74e13c1ec97a" fill="#ffffff" transform="matrix(6.1037640351658435,0,0,6.1037640351658435,0.000006823364230967854,-4.089521111358998)"><path d="M1.54 0.70L1.54 0.70L4.00 0.70L4.00 1.68L4.00 2.24L1.54 2.24L1.54 4.07L3.50 4.07L3.50 4.35L3.50 5.33L3.50 5.61L1.54 5.61L1.54 8.96L4.00 8.96L4.00 9.52L4.00 10.50L1.54 10.50L0 10.50L0 9.48L0 1.22L0 0.70L1.54 0.70ZM8.85 1.16L8.85 1.16L8.85 1.16Q9.18 1.57 9.18 2.07L9.18 2.07L9.18 3.12L9.18 3.40L8.90 3.40L7.92 3.40L7.64 3.40L7.64 3.12L7.64 2.23L6.47 2.23L6.47 3.98L6.47 4.05L7.78 4.05L7.78 4.05Q8.37 4.05 8.78 4.45L8.78 4.45L8.78 4.45Q9.18 4.86 9.18 5.45L9.18 5.45L9.18 6.85L9.18 9.11L9.18 9.11Q9.18 9.62 8.85 10.02L8.85 10.02L8.85 10.02Q8.51 10.40 8.01 10.49L8.01 10.49L7.98 10.50L7.97 10.50L6.13 10.50L6.12 10.50L6.09 10.49L6.09 10.49Q5.59 10.40 5.25 10.02L5.25 10.02L5.25 10.02Q4.91 9.62 4.91 9.11L4.91 9.11L4.91 8.06L4.91 7.78L5.19 7.78L6.19 7.78L6.47 7.78L6.47 8.06L6.47 8.96L7.64 8.96L7.64 5.60L6.31 5.60L6.31 5.60Q5.73 5.60 5.32 5.19L5.32 5.19L5.32 5.19Q4.91 4.79 4.91 4.20L4.91 4.20L4.91 4.10L4.91 3.98L4.91 2.07L4.91 2.07Q4.91 1.57 5.25 1.16L5.25 1.16L5.25 1.16Q5.59 0.78 6.09 0.70L6.09 0.70L6.12 0.70L6.13 0.70L7.97 0.70L7.98 0.70L8.01 0.70L8.01 0.70Q8.51 0.78 8.85 1.16ZM14.53 1.68L14.53 1.67L14.53 1.82L14.53 4.49L14.53 4.49Q14.53 4.96 14.21 5.28L14.21 5.28L14.21 5.28Q13.89 5.60 13.43 5.60L13.43 5.60L11.63 5.60L11.62 10.50L10.09 10.50L10.09 4.06L11.62 4.06L12.99 4.06L12.99 2.25L11.62 2.25L11.62 4.06L10.09 1.02L10.09 0.70L13.43 0.70L13.43 0.70Q13.85 0.70 14.16 0.99L14.16 0.99L14.16 0.99Q14.48 1.27 14.53 1.68L14.53 1.68ZM16.39 0.70L18.98 0.70L18.98 0.70Q19.38 0.77 19.64 1.08L19.64 1.08L19.64 1.08Q19.91 1.40 19.91 1.81L19.91 1.81L19.91 2.86L19.91 3.28L19.91 3.30L19.91 8.36L19.91 9.41L19.91 9.41Q19.91 9.81 19.64 10.12L19.64 10.12L19.64 10.12Q19.38 10.43 18.98 10.50L18.98 10.50L16.39 10.50L16.39 10.50Q16.00 10.43 15.74 10.12L15.74 10.12L15.74 10.12Q15.47 9.81 15.47 9.41L15.47 9.41L15.47 1.81L15.47 1.81Q15.47 1.40 15.74 1.08L15.74 1.08L15.74 1.08Q16.00 0.77 16.39 0.70L16.39 0.70ZM18.37 3.30L18.37 3.28L18.37 2.86L18.37 2.24L17.01 2.24L17.01 8.97L18.37 8.97L18.37 8.36L18.37 3.30ZM24.29 5.60L25.61 10.50L24.12 10.50L22.36 4.06L23.73 4.06L23.73 2.25L22.36 2.25L22.36 4.06L20.82 1.02L20.82 0.70L24.15 0.70L24.15 0.70Q24.58 0.70 24.89 0.98L24.89 0.98L24.89 0.98Q25.20 1.26 25.26 1.68L25.26 1.68L25.27 4.48L25.27 4.49L25.27 4.49Q25.27 4.91 24.98 5.23L24.98 5.23L24.98 5.23Q24.70 5.54 24.29 5.60L24.29 5.60ZM20.82 10.50L20.82 4.06L22.36 4.06L22.36 10.50L20.82 10.50ZM30.58 0.70L30.58 0.70L30.58 2.24L29.19 2.24L29.19 8.67L29.19 10.50L27.65 10.50L27.65 8.67L27.65 2.24L26.17 2.24L26.17 0.70L27.65 0.70L29.19 0.70L30.58 0.70ZM38.19 0.70L38.19 0.70L38.19 2.24L36.81 2.24L36.81 8.67L36.81 10.50L35.27 10.50L35.27 8.67L35.27 2.24L33.78 2.24L33.78 0.70L35.27 0.70L36.81 0.70L38.19 0.70ZM40.03 0.70L42.62 0.70L42.62 0.70Q43.01 0.77 43.27 1.08L43.27 1.08L43.27 1.08Q43.54 1.40 43.54 1.81L43.54 1.81L43.54 2.86L43.54 3.28L43.54 3.30L43.54 8.36L43.54 9.41L43.54 9.41Q43.54 9.81 43.27 10.12L43.27 10.12L43.27 10.12Q43.01 10.43 42.62 10.50L42.62 10.50L40.03 10.50L40.03 10.50Q39.63 10.43 39.37 10.12L39.37 10.12L39.37 10.12Q39.10 9.81 39.10 9.41L39.10 9.41L39.10 1.81L39.10 1.81Q39.10 1.40 39.37 1.08L39.37 1.08L39.37 1.08Q39.63 0.77 40.03 0.70L40.03 0.70ZM42 3.30L42 3.28L42 2.86L42 2.24L40.64 2.24L40.64 8.97L42 8.97L42 8.36L42 3.30ZM47.36 0.67L48.90 0.67L48.90 9.11L48.90 9.11Q48.90 9.65 48.57 10.02L48.57 10.02L48.57 10.02Q48.23 10.42 47.74 10.49L47.74 10.49L47.71 10.50L47.68 10.50L45.65 10.50L45.64 10.50L45.61 10.49L45.61 10.49Q45.12 10.42 44.79 10.02L44.79 10.02L44.79 10.02Q44.45 9.65 44.45 9.11L44.45 9.11L44.45 0.67L45.99 0.67L45.99 8.97L47.36 8.97L47.36 0.67ZM53.28 5.60L54.60 10.50L53.12 10.50L51.35 4.06L52.72 4.06L52.72 2.25L51.35 2.25L51.35 4.06L49.81 1.02L49.81 0.70L53.14 0.70L53.14 0.70Q53.58 0.70 53.89 0.98L53.89 0.98L53.89 0.98Q54.19 1.26 54.25 1.68L54.25 1.68L54.26 4.48L54.26 4.49L54.26 4.49Q54.26 4.91 53.98 5.23L53.98 5.23L53.98 5.23Q53.69 5.54 53.28 5.60L53.28 5.60ZM49.81 10.50L49.81 4.06L51.35 4.06L51.35 10.50L49.81 10.50ZM58.67 0.70L58.67 0.70L59.65 0.70L59.65 0.70L59.65 10.50L59.65 10.50L58.11 10.50L58.11 10.50L56.71 6.12L56.71 10.50L56.71 10.50L55.17 10.50L55.17 0.70L55.73 0.70L55.73 0.70L56.71 0.70L56.71 0.70L56.71 0.73L58.11 5.35L58.11 0.70L58.67 0.70L58.67 0.70ZM64.06 0.70L64.06 0.70L65.65 10.50L64.08 10.50L63.11 3.70L62.72 6.90L62.72 6.92L63.11 6.92L63.11 8.46L62.47 8.46L62.15 10.50L60.59 10.50L60.91 8.46L60.56 8.46L60.56 6.92L61.17 6.92L62.16 0.70L64.06 0.70ZM69.93 0.70L69.93 0.70L72.32 0.70L72.32 10.50L70.78 10.50L70.78 5.24L69.93 9.77L68.59 9.77L67.73 5.24L67.73 10.50L66.19 10.50L66.19 0.70L68.59 0.70L69.26 4.61L69.93 0.70ZM74.77 0.70L74.77 0.70L77.24 0.70L77.24 1.68L77.24 2.24L74.77 2.24L74.77 4.07L76.73 4.07L76.73 4.35L76.73 5.33L76.73 5.61L74.77 5.61L74.77 8.96L77.24 8.96L77.24 9.52L77.24 10.50L74.77 10.50L73.23 10.50L73.23 9.48L73.23 4.07L74.77 4.07L73.23 1.04L73.23 0.70L74.77 0.70ZM81.65 0.70L81.65 0.70L82.63 0.70L82.63 0.70L82.63 10.50L82.63 10.50L81.09 10.50L81.09 10.50L79.69 6.12L79.69 10.50L79.69 10.50L78.15 10.50L78.15 0.70L78.71 0.70L78.71 0.70L79.69 0.70L79.69 0.70L79.69 0.73L81.09 5.35L81.09 0.70L81.65 0.70L81.65 0.70ZM87.93 0.70L87.93 0.70L87.93 2.24L86.55 2.24L86.55 8.67L86.55 10.50L85.01 10.50L85.01 8.67L85.01 2.24L83.52 2.24L83.52 0.70L85.01 0.70L86.55 0.70L87.93 0.70Z"></path></g><!----><!----></svg>